<?xml version="1.0" encoding="UTF-8" standalone="no"?>
<!-- Created with Inkscape (http://www.inkscape.org/) -->

<svg
   xmlns:dc="http://purl.org/dc/elements/1.1/"
   xmlns:cc="http://creativecommons.org/ns#"
   xmlns:rdf="http://www.w3.org/1999/02/22-rdf-syntax-ns#"
   xmlns:svg="http://www.w3.org/2000/svg"
   xmlns="http://www.w3.org/2000/svg"
   xmlns:xlink="http://www.w3.org/1999/xlink"
   xmlns:sodipodi="http://sodipodi.sourceforge.net/DTD/sodipodi-0.dtd"
   xmlns:inkscape="http://www.inkscape.org/namespaces/inkscape"
   width="744.09448819"
   height="1052.3622047"
   id="svg2"
   version="1.1"
   inkscape:version="0.48.2 r9819"
   sodipodi:docname="logo.svg">
  <defs
     id="defs4">
    <linearGradient
       id="linearGradient3899">
      <stop
         style="stop-color:#bc0000;stop-opacity:1;"
         offset="0"
         id="stop3901" />
      <stop
         style="stop-color:#980000;stop-opacity:1;"
         offset="1"
         id="stop3903" />
    </linearGradient>
    <radialGradient
       inkscape:collect="always"
       xlink:href="#linearGradient3899"
       id="radialGradient3905"
       cx="210"
       cy="132.00504"
       fx="210"
       fy="132.00504"
       r="126.42857"
       gradientTransform="matrix(1,0,0,0.39830508,0,79.426761)"
       gradientUnits="userSpaceOnUse" />
  </defs>
  <sodipodi:namedview
     id="base"
     pagecolor="#ffffff"
     bordercolor="#666666"
     borderopacity="1.0"
     inkscape:pageopacity="0.0"
     inkscape:pageshadow="2"
     inkscape:zoom="4"
     inkscape:cx="192.40484"
     inkscape:cy="952.66542"
     inkscape:document-units="px"
     inkscape:current-layer="layer1"
     showgrid="false"
     inkscape:window-width="1203"
     inkscape:window-height="828"
     inkscape:window-x="163"
     inkscape:window-y="127"
     inkscape:window-maximized="0" />
  <metadata
     id="metadata7">
    <rdf:RDF>
      <cc:Work
         rdf:about="">
        <dc:format>image/svg+xml</dc:format>
        <dc:type
           rdf:resource="http://purl.org/dc/dcmitype/StillImage" />
        <dc:title></dc:title>
      </cc:Work>
    </rdf:RDF>
  </metadata>
  <g
     inkscape:label="Layer 1"
     inkscape:groupmode="layer"
     id="layer1">
    <rect
       id="rect3075"
       width="252.85715"
       height="100.71429"
       x="83.571426"
       y="81.647896"
       style="fill:url(#radialGradient3905);fill-opacity:1" />
    <g
       style="font-size:40px;font-style:normal;font-weight:normal;line-height:125%;letter-spacing:0px;word-spacing:0px;fill:#000000;fill-opacity:1;stroke:none;font-family:Sans"
       id="text2989"
       transform="translate(2.3214286,-0.35714286)">
      <path
         d="m 65.780697,228.0882 7.101562,0 c 0,0 -2.021284,0.21647 -2.090555,2.88502 -0.109321,4.21141 2.42363,9.2383 2.500242,13.45044 0.118291,6.50364 -3.144939,7.58336 -3.053326,13.54923 0.102822,6.69585 2.505849,10.16225 2.643639,18.94734 0.09924,6.32734 -1.207044,10.92186 -3.621093,13.78125 -2.390634,2.85936 -6.246098,4.28906 -11.566407,4.28906 l -2.707031,0 0,-5.97656 2.214844,0 c 3.140623,0 5.355465,-0.87892 6.644531,-2.63672 1.289056,-1.75782 1.933594,-4.91016 1.933594,-9.45703 l 0,-48.83203"
         style="font-size:72px"
         id="path2994"
         inkscape:connector-curvature="0"
         sodipodi:nodetypes="ccsssscsccsssc" />
      <path
         d="m 79.015072,228.0882 7.101562,0 0,46.51171 19.558596,0 0,5.97657 -26.660158,0 c 0,0 0.251381,-2.19222 0.193688,-4.72639 -0.09797,-4.30338 2.630465,-12.72536 2.44231,-18.31101 -0.170634,-5.06554 -3.362346,-8.50309 -3.324378,-12.95028 0.04264,-4.99383 1.849941,-7.2352 2.769961,-13.30176 0.367418,-2.42273 -2.081581,-3.19884 -2.081581,-3.19884"
         style="font-size:72px"
         id="path2996"
         inkscape:connector-curvature="0"
         sodipodi:nodetypes="ccccccssssc" />
      <path
         d="m 122.29905,245.73663 c -3.46876,4e-5 -4.13972,0.99525 -4.02378,2.73436 0.1694,2.54119 1.41939,2.71365 1.44084,5.82248 0.0181,2.61974 -2.12191,3.12026 -2.01171,6.48898 0.16317,4.98841 2.34347,5.48796 3.52322,15.50775 0.98779,-0.17354 1.38799,0.36369 2.57659,0.21228 0.01,-10.14969 2.70041,-11.04479 2.65121,-15.75333 -0.0354,-3.38421 -1.59599,-3.54029 -1.54544,-6.32942 0.0654,-3.60972 1.18664,-3.64618 1.31457,-5.67188 0.12309,-1.94895 -0.48021,-3.01118 -3.9255,-3.01122 m 0,-5.48437 c 4.86737,-0.50504 6.92686,2.08066 9.50645,5.48437 2.57959,3.40371 4.05875,8.71878 4.05879,15.1875 -4e-5,6.44533 -1.4792,11.39326 -4.18506,15.1875 -2.70586,3.79424 -4.63908,5.48438 -9.38018,5.48438 -5.64845,0 -6.09057,-1.81724 -9.28906,-5.48438 -3.19998,-3.66884 -4.27617,-9.92816 -4.27617,-15.1875 0,-5.25934 1.08867,-11.53122 4.27617,-15.1875 3.21093,-3.65621 4.01942,-4.47418 9.28906,-5.48437"
         style="font-size:72px"
         id="path2998"
         inkscape:connector-curvature="0"
         sodipodi:nodetypes="csssccssscczczssacc" />
    </g>
    <g
       style="font-size:40px;font-style:normal;font-weight:normal;line-height:125%;letter-spacing:0px;word-spacing:0px;fill:#000000;fill-opacity:1;stroke:none;font-family:Sans"
       id="text2989-1"
       transform="translate(-2.997051,106.94954)">
      <path
         d="m 65.780697,228.0882 7.101562,0 c 0,0 -2.021284,0.21647 -2.090555,2.88502 -0.109321,4.21141 2.42363,9.2383 2.500242,13.45044 0.118291,6.50364 -3.144939,7.58336 -3.053326,13.54923 0.102822,6.69585 2.505849,10.16225 2.643639,18.94734 0.09924,6.32734 -1.207044,10.92186 -3.621093,13.78125 -2.390634,2.85936 -6.246098,4.28906 -11.566407,4.28906 l -2.707031,0 0,-5.97656 2.214844,0 c 3.140623,0 5.355465,-0.87892 6.644531,-2.63672 1.289056,-1.75782 1.933594,-4.91016 1.933594,-9.45703 0,-5.85314 -2.116916,-12.48425 -2.371731,-17.3985 -0.319473,-6.16123 3.4681,-9.92903 3.512074,-14.62892 0.04397,-4.69988 -3.406585,-9.77268 -3.104629,-12.69445 0.301957,-2.92178 1.964286,-4.11016 1.964286,-4.11016"
         style="font-size:72px"
         id="path2994-2"
         inkscape:connector-curvature="0"
         sodipodi:nodetypes="ccsssscsccsssszzc" />
      <path
         d="m 79.015072,228.0882 7.101562,0 c 0,0 1.591922,1.07157 1.607143,3.2173 0.01522,2.14572 -2.709064,7.34639 -2.881398,13.21649 -0.122619,4.17672 3.365662,8.3152 3.62149,13.05649 -0.268542,7.72532 -1.965667,9.53909 -2.347235,17.02143 19.618436,-0.0177 19.558596,0 19.558596,0 l 0,5.97657 -26.660158,0 c 0,0 0.251381,-2.19222 0.193688,-4.72639 -0.09797,-4.30338 2.630465,-12.72536 2.44231,-18.31101 -0.170634,-5.06554 -3.362346,-8.50309 -3.324378,-12.95028 0.04264,-4.99383 1.849941,-7.2352 2.769961,-13.30176 0.367418,-2.42273 -2.081581,-3.19884 -2.081581,-3.19884"
         style="font-size:72px"
         id="path2996-5"
         inkscape:connector-curvature="0"
         sodipodi:nodetypes="cczscccccssssc" />
      <path
         d="m 122.29905,245.73663 c -3.46876,4e-5 -4.13972,0.99525 -4.02378,2.73436 0.1694,2.54119 1.41939,2.71365 1.44084,5.82248 0.0181,2.61974 -2.12191,3.12026 -2.01171,6.48898 0.16317,4.98841 2.34347,5.48796 3.52322,15.50775 0.98779,-0.17354 1.38799,0.36369 2.57659,0.21228 0.01,-10.14969 2.70041,-11.04479 2.65121,-15.75333 -0.0354,-3.38421 -1.59599,-3.54029 -1.54544,-6.32942 0.0654,-3.60972 1.18664,-3.64618 1.31457,-5.67188 0.12309,-1.94895 -0.48021,-3.01118 -3.9255,-3.01122 m 0,-5.48437 c 4.86737,-0.50504 6.92686,2.08066 9.50645,5.48437 2.57959,3.40371 4.05875,8.71878 4.05879,15.1875 -4e-5,6.44533 -1.4792,11.39326 -4.18506,15.1875 -2.70586,3.79424 -4.63908,5.48438 -9.38018,5.48438 -5.64845,0 -6.09057,-1.81724 -9.28906,-5.48438 -3.19998,-3.66884 -4.27617,-9.92816 -4.27617,-15.1875 0,-5.25934 1.08867,-11.53122 4.27617,-15.1875 3.21093,-3.65621 4.01942,-4.47418 9.28906,-5.48437"
         style="font-size:72px"
         id="path2998-3"
         inkscape:connector-curvature="0"
         sodipodi:nodetypes="csssccssscczczssacc" />
    </g>
    <g
       style="font-size:40px;font-style:normal;font-weight:normal;line-height:125%;letter-spacing:0px;word-spacing:0px;fill:#c9c9c9;fill-opacity:1;stroke:none;font-family:Sans"
       id="text2989-1-1"
       transform="translate(268.04988,-222.7236)">
      <path
         d="m 65.780697,228.0882 7.101562,0 c 0,0 -2.021284,0.21647 -2.090555,2.88502 -0.109321,4.21141 2.42363,9.2383 2.500242,13.45044 0.118291,6.50364 -3.144939,7.58336 -3.053326,13.54923 0.102822,6.69585 2.505849,10.16225 2.643639,18.94734 0.09924,6.32734 -1.207044,10.92186 -3.621093,13.78125 -2.390634,2.85936 -6.246098,4.28906 -11.566407,4.28906 l -2.707031,0 0,-5.97656 2.214844,0 c 3.140623,0 5.355465,-0.87892 6.644531,-2.63672 1.289056,-1.75782 1.933594,-4.91016 1.933594,-9.45703 0,-5.85314 -2.116916,-12.48425 -2.371731,-17.3985 -0.319473,-6.16123 3.4681,-9.92903 3.512074,-14.62892 0.04397,-4.69988 -3.406585,-9.77268 -3.104629,-12.69445 0.301957,-2.92178 1.964286,-4.11016 1.964286,-4.11016"
         style="font-size:72px;fill:#c9c9c9;fill-opacity:1"
         id="path2994-2-9"
         inkscape:connector-curvature="0"
         sodipodi:nodetypes="ccsssscsccsssszzc" />
      <path
         d="m 79.015072,228.0882 7.101562,0 c 0,0 1.591922,1.07157 1.607143,3.2173 0.01522,2.14572 -2.709064,7.34639 -2.881398,13.21649 -0.122619,4.17672 3.365662,8.3152 3.62149,13.05649 -0.268542,7.72532 -1.965667,9.53909 -2.347235,17.02143 19.618436,-0.0177 19.558596,0 19.558596,0 l 0,5.97657 -26.660158,0 c 0,0 0.251381,-2.19222 0.193688,-4.72639 -0.09797,-4.30338 2.630465,-12.72536 2.44231,-18.31101 -0.170634,-5.06554 -3.362346,-8.50309 -3.324378,-12.95028 0.04264,-4.99383 1.849941,-7.2352 2.769961,-13.30176 0.367418,-2.42273 -2.081581,-3.19884 -2.081581,-3.19884"
         style="font-size:72px;fill:#c9c9c9;fill-opacity:1"
         id="path2996-5-1"
         inkscape:connector-curvature="0"
         sodipodi:nodetypes="cczscccccssssc" />
    </g>
    <g
       style="font-size:40px;font-style:normal;font-weight:normal;line-height:125%;letter-spacing:0px;word-spacing:0px;fill:#000000;fill-opacity:1;stroke:none;font-family:Sans"
       id="text2989-1-9"
       transform="translate(146.71685,25.108526)">
      <path
         d="m 65.780697,228.0882 7.101562,0 c 0,0 -2.021284,0.21647 -2.090555,2.88502 -0.109321,4.21141 2.42363,9.2383 2.500242,13.45044 0.118291,6.50364 -3.144939,7.58336 -3.053326,13.54923 0.102822,6.69585 2.505849,10.16225 2.643639,18.94734 0.09924,6.32734 -1.207044,10.92186 -3.621093,13.78125 -2.390634,2.85936 -6.246098,4.28906 -11.566407,4.28906 l -2.707031,0 0,-5.97656 2.214844,0 c 3.140623,0 5.355465,-0.87892 6.644531,-2.63672 1.289056,-1.75782 1.933594,-4.91016 1.933594,-9.45703 0,-5.85314 -2.116916,-12.48425 -2.371731,-17.3985 -0.319473,-6.16123 3.4681,-9.92903 3.512074,-14.62892 0.04397,-4.69988 -3.406585,-9.77268 -3.104629,-12.69445 0.301957,-2.92178 1.964286,-4.11016 1.964286,-4.11016"
         style="font-size:72px"
         id="path2994-2-92"
         inkscape:connector-curvature="0"
         sodipodi:nodetypes="ccsssscsccsssszzc" />
      <path
         d="m 79.015072,228.0882 7.101562,0 c 0,0 1.591922,1.07157 1.607143,3.2173 0.01522,2.14572 -2.709064,7.34639 -2.881398,13.21649 -0.122619,4.17672 3.365662,8.3152 3.62149,13.05649 -0.268542,7.72532 -1.965667,9.53909 -2.347235,17.02143 19.618436,-0.0177 17.058596,0 17.058596,0 l 0,5.97657 -24.160158,0 c 0,0 0.251381,-2.19222 0.193688,-4.72639 -0.09797,-4.30338 2.630465,-12.72536 2.44231,-18.31101 -0.170634,-5.06554 -3.362346,-8.50309 -3.324378,-12.95028 0.04264,-4.99383 1.849941,-7.2352 2.769961,-13.30176 0.367418,-2.42273 -2.081581,-3.19884 -2.081581,-3.19884"
         style="font-size:72px"
         id="path2996-5-9"
         inkscape:connector-curvature="0"
         sodipodi:nodetypes="cczscccccssssc" />
      <path
         d="m 119.79905,245.73663 c -3.46876,4e-5 -4.67543,0.99525 -4.55949,2.73436 0.1694,2.54119 1.41939,2.71365 1.44084,5.82248 0.0181,2.61974 -2.12191,3.12026 -2.01171,6.48898 0.16317,4.98841 2.34347,5.48796 3.52322,15.50775 0.98779,-0.17354 2.45941,0.36369 3.64801,0.21228 0.01,-10.14969 2.70041,-11.04479 2.65121,-15.75333 -0.0354,-3.38421 -1.59599,-3.54029 -1.54544,-6.32942 0.0654,-3.60972 1.18664,-3.64618 1.31457,-5.67188 0.12309,-1.94895 -1.01592,-3.01118 -4.46121,-3.01122 m 0,-5.48437 c 4.86737,-0.50504 6.92686,2.08066 9.50645,5.48437 2.57959,3.40371 4.05875,8.71878 4.05879,15.1875 -4e-5,6.44533 -1.4792,11.39326 -4.18506,15.1875 -2.70586,3.79424 -4.63908,5.48438 -9.38018,5.48438 -5.64845,0 -6.09057,-1.81724 -9.28906,-5.48438 -3.19998,-3.66884 -4.27617,-9.92816 -4.27617,-15.1875 0,-5.25934 1.08867,-11.53122 4.27617,-15.1875 3.21093,-3.65621 4.01942,-4.47418 9.28906,-5.48437"
         style="font-size:72px"
         id="path2998-3-6"
         inkscape:connector-curvature="0"
         sodipodi:nodetypes="csssccssscczczssacc" />
    </g>
    <g
       style="font-size:40px;font-style:normal;font-weight:normal;line-height:125%;letter-spacing:0px;word-spacing:0px;fill:#000000;fill-opacity:1;stroke:none;font-family:Sans"
       id="text2989-1-9-8"
       transform="translate(147.71963,143.22582)">
      <path
         d="m 65.780697,228.0882 7.101562,0 c 0,0 -2.021284,0.21647 -2.090555,2.88502 -0.109321,4.21141 2.42363,9.2383 2.500242,13.45044 0.118291,6.50364 -3.144939,7.58336 -3.053326,13.54923 0.102822,6.69585 2.505849,10.16225 2.643639,18.94734 0.09924,6.32734 -1.207044,10.92186 -3.621093,13.78125 -2.390634,2.85936 -6.246098,4.28906 -11.566407,4.28906 l -2.707031,0 0,-5.97656 2.214844,0 c 3.140623,0 5.355465,-0.87892 6.644531,-2.63672 1.289056,-1.75782 1.933594,-4.91016 1.933594,-9.45703 0,-5.85314 -2.116916,-12.48425 -2.371731,-17.3985 -0.319473,-6.16123 3.4681,-9.92903 3.512074,-14.62892 0.04397,-4.69988 -3.406585,-9.77268 -3.104629,-12.69445 0.301957,-2.92178 1.964286,-4.11016 1.964286,-4.11016"
         style="font-size:72px"
         id="path2994-2-92-2"
         inkscape:connector-curvature="0"
         sodipodi:nodetypes="ccsssscsccsssszzc" />
      <path
         d="m 79.015072,228.0882 7.101562,0 c 0,0 1.591922,1.07157 1.607143,3.2173 0.01522,2.14572 -2.709064,7.34639 -2.881398,13.21649 -0.122619,4.17672 3.365662,8.3152 3.62149,13.05649 -0.268542,7.72532 -1.965667,9.53909 -2.347235,17.02143 19.618436,-0.0177 17.058596,0 17.058596,0 l 0,5.97657 -24.160158,0 c 0,0 0.251381,-2.19222 0.193688,-4.72639 -0.09797,-4.30338 2.630465,-12.72536 2.44231,-18.31101 -0.170634,-5.06554 -3.362346,-8.50309 -3.324378,-12.95028 0.04264,-4.99383 1.849941,-7.2352 2.769961,-13.30176 0.367418,-2.42273 -2.081581,-3.19884 -2.081581,-3.19884"
         style="font-size:72px"
         id="path2996-5-9-2"
         inkscape:connector-curvature="0"
         sodipodi:nodetypes="cczscccccssssc" />
      <path
         d="m 117.79905,245.73663 c -3.46876,4e-5 -4.67543,0.99525 -4.55949,2.73436 0.1694,2.54119 1.41939,2.71365 1.44084,5.82248 0.0181,2.61974 -2.12191,3.12026 -2.01171,6.48898 0.16317,4.98841 2.34347,5.48796 3.52322,15.50775 0.98779,-0.17354 2.45941,0.36369 3.64801,0.21228 0.01,-10.14969 2.70041,-11.04479 2.65121,-15.75333 -0.0354,-3.38421 -1.59599,-3.54029 -1.54544,-6.32942 0.0654,-3.60972 1.18664,-3.64618 1.31457,-5.67188 0.12309,-1.94895 -1.01592,-3.01118 -4.46121,-3.01122 m 0,-5.48437 c 4.86737,-0.50504 7.38758,0.65778 10.26406,4.47422 2.87648,3.81644 -0.27065,6.45843 0.0783,10.1568 0.31497,3.33816 1.96013,2.48059 1.96015,5.53577 -4e-5,6.44533 -3.24697,7.85773 -3.42745,13.67227 -0.18047,5.81455 -4.134,7.50469 -8.8751,7.50469 -5.64845,0 -7.18173,-3.92016 -8.78398,-8.51484 -0.92714,-2.65869 -3.51856,-6.64516 -3.51856,-11.9045 0,-3.02941 0.86628,-2.85924 1.78174,-5.86717 0.67385,-2.21411 -2.14005,-7.01248 -0.28349,-9.06779 2.70585,-6.93921 5.53465,-4.97926 10.80429,-5.98945"
         style="font-size:72px"
         id="path2998-3-6-0"
         inkscape:connector-curvature="0"
         sodipodi:nodetypes="csssccssscczsczsssscc" />
    </g>
    <g
       style="font-size:40px;font-style:normal;font-weight:normal;line-height:125%;letter-spacing:0px;word-spacing:0px;fill:#ffb2ff;fill-opacity:1;stroke:none;font-family:Sans"
       id="text2989-1-1-8"
       transform="translate(218.73144,-30.431206)">
      <path
         d="m 65.780697,228.0882 7.101562,0 c 0,0 -2.021284,0.21647 -2.090555,2.88502 -0.109321,4.21141 2.42363,9.2383 2.500242,13.45044 0.118291,6.50364 -3.144939,7.58336 -3.053326,13.54923 0.102822,6.69585 2.505849,10.16225 2.643639,18.94734 0.09924,6.32734 -1.207044,10.92186 -3.621093,13.78125 -2.390634,2.85936 -6.246098,4.28906 -11.566407,4.28906 l -2.707031,0 0,-5.97656 2.214844,0 c 3.140623,0 5.355465,-0.87892 6.644531,-2.63672 1.289056,-1.75782 1.933594,-4.91016 1.933594,-9.45703 0,-5.85314 -2.116916,-12.48425 -2.371731,-17.3985 -0.319473,-6.16123 3.4681,-9.92903 3.512074,-14.62892 0.04397,-4.69988 -3.406585,-9.77268 -3.104629,-12.69445 0.301957,-2.92178 1.964286,-4.11016 1.964286,-4.11016"
         style="font-size:72px;fill:#ffb2ff;fill-opacity:1"
         id="path2994-2-9-8"
         inkscape:connector-curvature="0"
         sodipodi:nodetypes="ccsssscsccsssszzc" />
      <path
         d="m 79.015072,228.0882 7.101562,0 c 0,0 1.591922,1.07157 1.607143,3.2173 0.01522,2.14572 -2.709064,7.34639 -2.881398,13.21649 -0.122619,4.17672 3.365662,8.3152 3.62149,13.05649 -0.268542,7.72532 -1.965667,9.53909 -2.347235,17.02143 19.618436,-0.0177 19.558596,0 19.558596,0 l 0,5.97657 -26.660158,0 c 0,0 0.251381,-2.19222 0.193688,-4.72639 -0.09797,-4.30338 2.630465,-12.72536 2.44231,-18.31101 -0.170634,-5.06554 -3.362346,-8.50309 -3.324378,-12.95028 0.04264,-4.99383 1.849941,-7.2352 2.769961,-13.30176 0.367418,-2.42273 -2.081581,-3.19884 -2.081581,-3.19884"
         style="font-size:72px;fill:#ffb2ff;fill-opacity:1"
         id="path2996-5-1-1"
         inkscape:connector-curvature="0"
         sodipodi:nodetypes="cczscccccssssc" />
      <path
         d="m 122.29905,245.73663 c -3.46876,4e-5 -4.13972,0.99525 -4.02378,2.73436 0.1694,2.54119 1.41939,2.71365 1.44084,5.82248 0.0181,2.61974 -2.12191,3.12026 -2.01171,6.48898 0.16317,4.98841 2.34347,5.48796 3.52322,15.50775 0.98779,-0.17354 1.38799,0.36369 2.57659,0.21228 0.01,-10.14969 2.70041,-11.04479 2.65121,-15.75333 -0.0354,-3.38421 -1.59599,-3.54029 -1.54544,-6.32942 0.0654,-3.60972 1.18664,-3.64618 1.31457,-5.67188 0.12309,-1.94895 -0.48021,-3.01118 -3.9255,-3.01122 m 0,-5.48437 c 4.86737,-0.50504 6.92686,2.08066 9.50645,5.48437 2.57959,3.40371 4.05875,8.71878 4.05879,15.1875 -4e-5,6.44533 -1.4792,11.39326 -4.18506,15.1875 -2.70586,3.79424 -4.63908,5.48438 -9.38018,5.48438 -5.64845,0 -6.09057,-1.81724 -9.28906,-5.48438 -3.19998,-3.66884 -4.27617,-9.92816 -4.27617,-15.1875 0,-5.25934 1.08867,-11.53122 4.27617,-15.1875 3.21093,-3.65621 4.01942,-4.47418 9.28906,-5.48437"
         style="font-size:72px;fill:#ffb2ff;fill-opacity:1"
         id="path2998-3-0-6"
         inkscape:connector-curvature="0"
         sodipodi:nodetypes="csssccssscczczssacc" />
    </g>
    <text
       xml:space="preserve"
       style="font-size:40px;font-style:normal;font-weight:normal;line-height:125%;letter-spacing:0px;word-spacing:0px;fill:#000000;fill-opacity:1;stroke:none;font-family:Sans"
       x="199.48102"
       y="88.001534"
       id="text3934"
       sodipodi:linespacing="125%"><tspan
         sodipodi:role="line"
         id="tspan3936"
         x="199.48102"
         y="88.001534"
         style="font-style:normal;font-variant:normal;font-weight:300;font-stretch:normal;fill:#ffffff;fill-opacity:1;font-family:Raleway;-inkscape-font-specification:Raleway Light">JLo</tspan></text>
    <text
       xml:space="preserve"
       style="font-size:40px;font-style:normal;font-weight:normal;line-height:125%;letter-spacing:0px;word-spacing:0px;fill:#000000;fill-opacity:1;stroke:none;font-family:Sans"
       x="57.5"
       y="485.86218"
       id="text3973"
       sodipodi:linespacing="125%"><tspan
         sodipodi:role="line"
         id="tspan3975"
         x="57.5"
         y="485.86218"
         style="font-size:72px;font-style:normal;font-variant:normal;font-weight:normal;font-stretch:normal;font-family:Amerika Sans;-inkscape-font-specification:Amerika Sans">JLo</tspan></text>
    <g
       style="font-size:40px;font-style:normal;font-weight:normal;line-height:125%;letter-spacing:0px;word-spacing:0px;fill:#000000;fill-opacity:1;stroke:none;font-family:Sans"
       id="text2989-1-9-8-2"
       transform="translate(160.95536,223.32281)">
      <path
         d="m 71.257259,228.0882 c 0,0 -0.482559,0.21563 -0.465555,2.88502 0.01568,2.46141 2.42363,9.2383 2.500242,13.45044 0.118291,6.50364 -3.144939,7.58336 -3.053326,13.54923 0.102822,6.69585 2.505849,10.16225 2.643639,18.94734 0.09924,6.32734 -1.207044,10.92186 -3.621093,13.78125 -2.390634,2.85936 -6.246098,4.28906 -11.566407,4.28906 l -2.707031,0 0,-5.97656 2.214844,0 c 3.140623,0 5.355465,-0.87892 6.644531,-2.63672 1.289056,-1.75782 1.933594,-4.91016 1.933594,-9.45703 0,-5.85314 -2.116916,-12.48425 -2.371731,-17.3985 -0.319473,-6.16123 3.4681,-9.92903 3.512074,-14.62892 0.04397,-4.69988 -3.406585,-9.77268 -3.104629,-12.69445 0.301957,-2.92178 0.714286,-4.11016 0.714286,-4.11016"
         style="font-size:72px"
         id="path2994-2-92-2-6"
         inkscape:connector-curvature="0"
         sodipodi:nodetypes="csssscsccsssszzc" />
      <path
         d="m 79.015072,228.0882 7.976562,0 c 0,0 0.716922,1.07157 0.732143,3.2173 0.01522,2.14572 -2.709064,7.34639 -2.881398,13.21649 -0.122619,4.17672 3.365662,8.3152 3.62149,13.05649 -0.268542,7.72532 -1.965667,9.53909 -2.347235,17.02143 19.618436,-0.0177 17.058596,0 17.058596,0 l 0,5.97657 -24.160158,0 c 0,0 0.251381,-2.19222 0.193688,-4.72639 -0.09797,-4.30338 2.630465,-12.72536 2.44231,-18.31101 -0.170634,-5.06554 -3.362346,-8.50309 -3.324378,-12.95028 0.04264,-4.99383 1.849941,-7.2352 2.769961,-13.30176 0.367418,-2.42273 -0.581581,-3.19884 -0.581581,-3.19884"
         style="font-size:72px"
         id="path2996-5-9-2-1"
         inkscape:connector-curvature="0"
         sodipodi:nodetypes="cczscccccssssc" />
    </g>
    <g
       style="font-size:40px;font-style:normal;font-weight:normal;line-height:125%;letter-spacing:0px;word-spacing:0px;fill:#ffffff;fill-opacity:1;stroke:none;font-family:Sans"
       id="text2989-1-9-8-2-9"
       transform="translate(53.8637,-129.67719)">
      <path
         d="m 71.632259,228.0882 c 0,0 -0.607559,0.21563 -0.590555,2.88502 0.01568,2.46141 2.17363,8.7383 2.250242,12.95044 0.118291,6.50364 -3.144939,7.58336 -3.053326,13.54923 0.102822,6.69585 2.505849,10.66225 2.643639,19.44734 0.09924,6.32734 -1.207044,9.92186 -3.621093,12.78125 -2.390634,2.85936 -4.268642,3.5498 -9.566407,4.03906 l -2.707031,0 0,-4.72656 2.214844,0 c 3.140623,0 5.355465,-0.87892 6.644531,-2.63672 1.289056,-1.75782 1.933594,-4.91016 1.933594,-9.45703 0,-5.85314 -2.116916,-12.98425 -2.371731,-17.8985 -0.319473,-6.16123 3.4681,-9.92903 3.512074,-14.62892 0.04397,-4.69988 -3.156585,-9.27268 -2.854629,-12.19445 0.301957,-2.92178 0.714286,-4.11016 0.714286,-4.11016"
         style="font-size:72px;fill:#ffffff;fill-opacity:1"
         id="path2994-2-92-2-6-9"
         inkscape:connector-curvature="0"
         sodipodi:nodetypes="csssscsccsssszzc" />
      <path
         d="m 78.765072,228.0882 5.976562,0 c 0,0 0.716922,1.07157 0.732143,3.2173 0.01522,2.14572 -2.459064,6.84639 -2.631398,12.71649 -0.122619,4.17672 3.365662,8.3152 3.62149,13.05649 -0.268542,7.72532 -1.965667,10.03909 -2.347235,17.52143 19.618436,-0.0177 16.308596,0 16.308596,0 l 0,4.72657 -21.410158,0 c 0,0 0.251381,-0.94222 0.193688,-3.47639 -0.09797,-4.30338 2.630465,-13.22536 2.44231,-18.81101 -0.170634,-5.06554 -3.362346,-8.50309 -3.324378,-12.95028 0.04264,-4.99383 1.599941,-6.7352 2.519961,-12.80176 0.367418,-2.42273 -0.456581,-3.19884 -0.456581,-3.19884"
         style="font-size:72px;fill:#ffffff;fill-opacity:1"
         id="path2996-5-9-2-1-9"
         inkscape:connector-curvature="0"
         sodipodi:nodetypes="cczscccccssssc" />
    </g>
    <g
       style="font-size:40px;font-style:normal;font-weight:normal;line-height:125%;letter-spacing:0px;word-spacing:0px;fill:#bdbdbd;fill-opacity:1;stroke:none;font-family:Sans"
       id="text2989-1-9-8-2-9-5"
       transform="translate(167.18818,-39.17719)">
      <path
         d="m 71.382259,228.0882 c 0,0 -0.607559,0.21563 -0.590555,2.88502 0.01568,2.46141 2.42363,9.2383 2.500242,13.45044 0.118291,6.50364 -3.144939,7.58336 -3.053326,13.54923 0.102822,6.69585 2.505849,10.16225 2.643639,18.94734 0.09924,6.32734 -1.207044,10.92186 -3.621093,13.78125 -2.390634,2.85936 -6.246098,4.28906 -11.566407,4.28906 l -2.707031,0 0,-5.97656 2.214844,0 c 3.140623,0 5.355465,-0.87892 6.644531,-2.63672 1.289056,-1.75782 1.933594,-4.91016 1.933594,-9.45703 0,-5.85314 -2.116916,-12.48425 -2.371731,-17.3985 -0.319473,-6.16123 3.4681,-9.92903 3.512074,-14.62892 0.04397,-4.69988 -3.406585,-9.77268 -3.104629,-12.69445 0.301957,-2.92178 0.714286,-4.11016 0.714286,-4.11016"
         style="font-size:72px;fill:#bdbdbd;fill-opacity:1"
         id="path2994-2-92-2-6-9-4"
         inkscape:connector-curvature="0"
         sodipodi:nodetypes="csssscsccsssszzc" />
      <path
         d="m 79.015072,228.0882 7.976562,0 c 0,0 0.716922,1.07157 0.732143,3.2173 0.01522,2.14572 -2.709064,7.34639 -2.881398,13.21649 -0.122619,4.17672 3.365662,8.3152 3.62149,13.05649 -0.268542,7.72532 -1.965667,9.53909 -2.347235,17.02143 19.618436,-0.0177 16.308596,0 16.308596,0 l 0,5.97657 -23.410158,0 c 0,0 0.251381,-2.19222 0.193688,-4.72639 -0.09797,-4.30338 2.630465,-12.72536 2.44231,-18.31101 -0.170634,-5.06554 -3.362346,-8.50309 -3.324378,-12.95028 0.04264,-4.99383 1.849941,-7.2352 2.769961,-13.30176 0.367418,-2.42273 -0.456581,-3.19884 -0.456581,-3.19884"
         style="font-size:72px;fill:#bdbdbd;fill-opacity:1"
         id="path2996-5-9-2-1-9-4"
         inkscape:connector-curvature="0"
         sodipodi:nodetypes="cczscccccssssc" />
    </g>
    <g
       style="font-size:40px;font-style:normal;font-weight:normal;line-height:125%;letter-spacing:0px;word-spacing:0px;fill:#ffffff;fill-opacity:1;stroke:none;font-family:Sans"
       id="text2989-1-9-8-2-9-9"
       transform="translate(190.93818,-135.42719)">
      <path
         d="m 71.632259,228.0882 c 0,0 -0.607559,0.21563 -0.590555,2.88502 0.01568,2.46141 2.17363,8.7383 2.250242,12.95044 0.118291,6.50364 -3.144939,7.58336 -3.053326,13.54923 0.102822,6.69585 2.505849,10.66225 2.643639,19.44734 0.09924,6.32734 -1.207044,10.92186 -3.621093,13.78125 -2.390634,2.85936 -6.246098,4.28906 -11.566407,4.28906 l -2.707031,0 0,-5.97656 2.214844,0 c 3.140623,0 5.355465,-0.87892 6.644531,-2.63672 1.289056,-1.75782 1.933594,-4.91016 1.933594,-9.45703 0,-5.85314 -2.116916,-12.98425 -2.371731,-17.8985 -0.319473,-6.16123 3.4681,-9.92903 3.512074,-14.62892 0.04397,-4.69988 -3.156585,-9.27268 -2.854629,-12.19445 0.301957,-2.92178 0.714286,-4.11016 0.714286,-4.11016"
         style="font-size:72px;fill:#ffffff;fill-opacity:1"
         id="path2994-2-92-2-6-9-8"
         inkscape:connector-curvature="0"
         sodipodi:nodetypes="csssscsccsssszzc" />
      <path
         d="m 78.765072,228.0882 7.976562,0 c 0,0 0.716922,1.07157 0.732143,3.2173 0.01522,2.14572 -2.459064,6.84639 -2.631398,12.71649 -0.122619,4.17672 3.365662,8.3152 3.62149,13.05649 -0.268542,7.72532 -1.965667,10.03909 -2.347235,17.52143 19.618436,-0.0177 16.308596,0 16.308596,0 l 0,5.97657 -23.410158,0 c 0,0 0.251381,-2.19222 0.193688,-4.72639 -0.09797,-4.30338 2.630465,-13.22536 2.44231,-18.81101 -0.170634,-5.06554 -3.362346,-8.50309 -3.324378,-12.95028 0.04264,-4.99383 1.599941,-6.7352 2.519961,-12.80176 0.367418,-2.42273 -0.456581,-3.19884 -0.456581,-3.19884"
         style="font-size:72px;fill:#ffffff;fill-opacity:1"
         id="path2996-5-9-2-1-9-9"
         inkscape:connector-curvature="0"
         sodipodi:nodetypes="cczscccccssssc" />
    </g>
    <g
       style="font-size:40px;font-style:normal;font-weight:normal;line-height:125%;letter-spacing:0px;word-spacing:0px;fill:#ffffff;fill-opacity:1;stroke:none;font-family:Sans"
       id="text2989-1-9-8-2-9-0"
       transform="translate(121.18818,-128.55219)">
      <path
         d="m 71.632259,230.8382 c 0,0 -0.607559,0.21563 -0.590555,2.88502 0.01568,2.46141 1.92363,6.7383 2.000242,10.95044 0.118291,6.50364 -2.894939,7.08336 -2.803326,13.04923 0.102822,6.69585 3.130849,10.41225 3.268639,19.19734 0.09924,6.32734 -1.207044,7.17186 -3.621093,10.03125 -2.390634,2.85936 -6.9123,2.78906 -7.566407,2.78906 l -2.707031,0 0,-2.72656 2.214844,0 c 3.140623,0 5.355465,-0.87892 6.644531,-2.63672 1.289056,-1.75782 2.183594,-2.91016 2.183594,-7.45703 0,-5.85314 -2.991916,-12.73425 -3.246731,-17.6485 -0.319473,-6.16123 3.2181,-9.42903 3.262074,-14.12892 0.04397,-4.69988 -2.156586,-7.39767 -2.354629,-10.19445 -0.198043,-2.79678 0.464286,-4.11016 0.464286,-4.11016"
         style="font-size:72px;fill:#ffffff;fill-opacity:1"
         id="path2994-2-92-2-6-9-3"
         inkscape:connector-curvature="0"
         sodipodi:nodetypes="csssscsccsssszzc" />
      <path
         d="m 78.390072,230.8382 3.976562,0 c 0,0 0.716922,1.07157 0.732143,3.2173 0.01522,2.14572 -2.209064,4.84639 -2.381398,10.71649 -0.122619,4.17672 3.115662,7.8152 3.37149,12.55649 -0.268542,7.72532 -2.590667,9.78909 -2.972235,17.27143 19.618436,-0.0177 14.308596,0 14.308596,0 l 0,2.72657 -17.410158,0 c 0,0 0.251381,1.05778 0.193688,-1.47639 -0.09797,-4.30338 3.255465,-12.97536 3.06731,-18.56101 -0.170634,-5.06554 -3.112346,-8.00309 -3.074378,-12.45028 0.04264,-4.99383 1.349941,-4.7352 2.269961,-10.80176 0.367418,-2.42273 -0.456581,-3.19884 -0.456581,-3.19884"
         style="font-size:72px;fill:#ffffff;fill-opacity:1"
         id="path2996-5-9-2-1-9-6"
         inkscape:connector-curvature="0"
         sodipodi:nodetypes="cczscccccssssc" />
    </g>
    <g
       style="font-size:40px;font-style:normal;font-weight:normal;line-height:125%;letter-spacing:0px;word-spacing:0px;fill:#ff75ff;fill-opacity:1;stroke:none;font-family:Sans"
       id="text2989-1-9-8-2-9-0-7"
       transform="translate(70.65356,-40.80227)">
      <path
         d="m 71.632259,230.0882 c 0,0 -0.607559,0.21563 -0.590555,2.88502 0.01568,2.46141 2.17363,6.7383 2.250242,10.95044 0.118291,6.50364 -3.144939,7.58336 -3.053326,13.54923 0.102822,6.69585 2.505849,10.66225 2.643639,19.44734 0.09924,6.32734 -1.207044,7.17186 -3.621093,10.03125 -2.390634,2.85936 -6.9123,2.78906 -7.566407,2.78906 l -2.707031,0 0,-2.72656 2.214844,0 c 3.140623,0 5.355465,-0.87892 6.644531,-2.63672 1.289056,-1.75782 1.933594,-2.91016 1.933594,-7.45703 0,-5.85314 -2.116916,-12.98425 -2.371731,-17.8985 -0.319473,-6.16123 3.4681,-9.92903 3.512074,-14.62892 0.04397,-4.69988 -2.406586,-7.39767 -2.604629,-10.19445 -0.198043,-2.79678 0.464286,-4.11016 0.464286,-4.11016"
         style="font-size:72px;fill:#ff75ff;fill-opacity:1"
         id="path2994-2-92-2-6-9-3-5"
         inkscape:connector-curvature="0"
         sodipodi:nodetypes="csssscsccsssszzc" />
      <path
         d="m 78.390072,230.0882 3.976562,0 c 0,0 0.716922,1.07157 0.732143,3.2173 0.01522,2.14572 -2.459064,4.84639 -2.631398,10.71649 -0.122619,4.17672 3.365662,8.3152 3.62149,13.05649 -0.268542,7.72532 -1.965667,10.03909 -2.347235,17.52143 19.618436,-0.0177 14.308596,0 14.308596,0 l 0,2.72657 -17.410158,0 c 0,0 0.251381,1.05778 0.193688,-1.47639 -0.09797,-4.30338 2.630465,-13.22536 2.44231,-18.81101 -0.170634,-5.06554 -3.362346,-8.50309 -3.324378,-12.95028 0.04264,-4.99383 1.599941,-4.7352 2.519961,-10.80176 0.367418,-2.42273 -0.456581,-3.19884 -0.456581,-3.19884"
         style="font-size:72px;fill:#ff75ff;fill-opacity:1"
         id="path2996-5-9-2-1-9-6-9"
         inkscape:connector-curvature="0"
         sodipodi:nodetypes="cczscccccssssc" />
    </g>
  </g>
</svg>
